<?xml version="1.0" encoding="UTF-8" standalone="no"?>
<svg
   width="720"
   height="220"
   viewBox="0 0 720 220"
   version="1.1"
   id="svg8"
   xmlns="http://www.w3.org/2000/svg"
   xmlns:svg="http://www.w3.org/2000/svg">
  <defs
     id="defs8" />
  <rect
     x="43"
     y="48"
     width="23"
     height="23"
     fill="#FFFFFF"
     id="rect1" />
  <rect
     x="66"
     y="71"
     width="23"
     height="23"
     fill="#FFFFFF"
     id="rect2" />
  <rect
     x="43"
     y="94"
     width="23"
     height="23"
     fill="#FFFFFF"
     id="rect3" />
  <rect
     x="89"
     y="94"
     width="23"
     height="23"
     fill="#FFFFFF"
     id="rect4" />
  <rect
     x="20"
     y="117"
     width="23"
     height="23"
     fill="#FFFFFF"
     id="rect5" />
  <rect
     x="66"
     y="117"
     width="23"
     height="23"
     fill="#FFFFFF"
     id="rect6" />
  <g
     id="text7"
     style="font-weight:900;font-size:116px;font-family:'Inter Display';letter-spacing:-7px"
     aria-label="PixlWrk">
    <path
       style="fill:#ffffff"
       d="m 154.53125,145 h 23.5625 v -25.48828 h 12.29102 c 20.16406,0 32.79492,-11.38477 32.79492,-29.453126 0,-18.06836 -12.63086,-29.453125 -32.79492,-29.453125 h -35.85352 z m 23.5625,-44.85937 V 79.976562 h 10.53516 c 7.08007,0 11.55468,3.908204 11.55468,10.082032 0,6.173828 -4.47461,10.082036 -11.55468,10.082036 z M 223.0332,145 h 22.65625 V 85.1875 H 223.0332 Z m 11.27149,-63.777344 c 7.08008,0 12.06445,-4.53125 12.06445,-10.93164 0,-6.34375 -4.98437,-10.81836 -12.06445,-10.81836 -7.08008,0 -12.06446,4.47461 -12.06446,10.81836 0,6.40039 4.98438,10.93164 12.06446,10.93164 z M 243.33398,145 h 24.24219 l 3.11524,-5.4375 c 2.15234,-3.79492 3.85156,-7.08008 5.60742,-10.36523 1.69922,3.28515 3.45508,6.57031 5.49414,10.36523 L 284.73828,145 h 24.29883 L 288.70312,113.84766 308.13086,85.1875 H 284.3418 l -2.94532,5.4375 c -1.8125,3.285156 -3.34179,6.287109 -4.81445,9.175781 -1.41601,-2.888672 -2.94531,-5.890625 -4.64453,-9.175781 l -2.83203,-5.4375 h -24.12891 l 19.03125,29.33984 z M 329.33789,60.605469 H 306.68164 V 145 h 22.65625 z"
       id="path8" />
    <path
       style="fill:#ffffff"
       d="m 349.58203,145 h 25.88477 l 9.57226,-38.96875 c 0.73633,-2.94531 1.41602,-6.513672 2.32227,-10.931641 0.90625,4.417969 1.58594,7.986331 2.32226,10.931641 L 399.25586,145 h 25.88476 l 22.37305,-84.394531 h -25.60156 l -6.79688,32.738281 c -1.52929,7.36328 -2.88867,14.72656 -4.1914,22.08984 -1.47266,-7.36328 -2.94531,-14.72656 -4.64453,-22.08984 l -7.47657,-32.738281 h -22.88281 l -7.47656,32.738281 c -1.69922,7.41992 -3.22852,14.83984 -4.64453,22.25977 -1.35938,-7.41993 -2.71875,-14.83985 -4.24805,-22.25977 l -6.74023,-32.738281 h -25.60157 z m 92.4043,0 h 22.65625 v -28.66016 c 0,-7.98632 4.47461,-13.02734 11.55469,-13.02734 h 8.26953 v -18.125 h -5.66407 c -8.21289,0 -12.57421,2.832031 -14.72656,10.875 h -0.11328 v -10.875 h -21.97656 z m 42.39062,0 h 22.65625 v -16.5957 l 3.28516,-4.07813 L 523.00586,145 h 25.71484 l -21.75,-33.53125 21.07032,-26.28125 h -25.60157 l -15.17968,19.48438 H 507.0332 V 60.605469 h -22.65625 z"
       id="path9" />
  </g>
  <path
     d="m 156.89941,184.17578 c 3.09375,0 5.16797,-2.03027 5.52832,-4.53516 h -2.37304 c -0.29883,1.54688 -1.56446,2.43458 -3.12891,2.43458 -2.12695,0 -3.66504,-1.6084 -3.66504,-4.61426 0,-2.97071 1.5293,-4.63184 3.67383,-4.63184 1.56445,0 2.83008,0.8877 3.12012,2.43457 h 2.36426 c -0.41309,-2.86523 -2.64551,-4.53515 -5.51954,-4.53515 -3.41894,0 -5.99414,2.49609 -5.99414,6.73242 0,4.21875 2.54883,6.71484 5.99414,6.71484 z M 167.08105,184 h 2.34668 v -4.80762 h 2.44336 L 174.44629,184 h 2.62793 l -2.83887,-5.20313 c 1.54688,-0.61523 2.35547,-1.9248 2.35547,-3.70019 0,-2.49609 -1.59961,-4.19238 -4.61426,-4.19238 h -4.89551 z m 2.34668,-6.75 v -4.37695 h 2.18848 c 1.78418,0 2.5752,0.82617 2.5752,2.22363 0,1.38867 -0.79102,2.15332 -2.55762,2.15332 z m 11.89551,6.75 h 8.54297 v -1.97754 h -6.19629 v -3.65625 h 5.7041 v -1.95117 h -5.7041 v -3.5332 h 6.16113 v -1.97754 h -8.50781 z m 12.51953,0 h 2.56641 l 1.07227,-3.24316 h 4.8955 L 203.49316,184 h 2.5752 l -4.67578,-13.0957 h -2.97949 z m 4.2627,-5.13281 0.55371,-1.66992 c 0.36035,-1.16895 0.75586,-2.63672 1.22168,-4.46485 0.4834,1.81055 0.89648,3.26074 1.2832,4.46485 l 0.57129,1.66992 z m 10.0498,-5.98535 h 4.04297 V 184 h 2.34668 v -11.11816 h 4.03418 v -1.97754 h -10.42383 z m 17.31836,-1.97754 h -2.34668 V 184 h 2.34668 z M 234.39844,184 h 2.9707 l 4.58789,-13.0957 h -2.56641 l -2.25,6.80273 c -0.36914,1.16895 -0.76464,2.60156 -1.23925,4.4209 -0.4834,-1.80176 -0.90528,-3.26074 -1.27442,-4.4209 l -2.32031,-6.80273 h -2.57519 z m 11.80761,0 h 8.54297 v -1.97754 h -6.19629 v -3.65625 h 5.70411 v -1.95117 h -5.70411 v -3.5332 h 6.16114 v -1.97754 h -8.50782 z m 23.4043,-17.31445 h -2.12695 v 21.5332 h 2.12695 z m 12.43555,6.19629 h 4.04297 V 184 h 2.34668 v -11.11816 h 4.03418 V 170.9043 H 282.0459 Z M 297.01758,184 h 8.54297 v -1.97754 h -6.19629 v -3.65625 h 5.7041 v -1.95117 h -5.7041 v -3.5332 h 6.16113 v -1.97754 h -8.50781 z m 18.97949,0.17578 c 3.09375,0 5.16797,-2.03027 5.52832,-4.53516 h -2.37305 c -0.29882,1.54688 -1.56445,2.43458 -3.1289,2.43458 -2.12696,0 -3.66504,-1.6084 -3.66504,-4.61426 0,-2.97071 1.5293,-4.63184 3.67383,-4.63184 1.56445,0 2.83007,0.8877 3.12011,2.43457 h 2.36426 c -0.41308,-2.86523 -2.64551,-4.53515 -5.51953,-4.53515 -3.41895,0 -5.99414,2.49609 -5.99414,6.73242 0,4.21875 2.54883,6.71484 5.99414,6.71484 z M 326.17871,184 h 2.34668 v -5.7041 h 6.09082 V 184 h 2.34668 v -13.0957 h -2.34668 v 5.41406 h -6.09082 v -5.41406 h -2.34668 z m 15.9209,0 h 2.39062 v -6.50391 c 0,-0.72949 -0.0791,-2.10937 -0.16699,-3.72656 0.87891,1.70508 1.3711,2.63672 2.05664,3.73535 L 350.4668,184 h 2.66308 v -13.0957 h -2.38183 v 6.87304 c 0,0.79981 0.0527,2.12696 0.14062,3.39258 -0.57129,-1.30957 -1.14258,-2.30273 -1.6084,-3.0498 l -4.52636,-7.21582 h -2.6543 z m 21.77441,0.17578 c 3.42774,0 6.00293,-2.4873 6.00293,-6.71484 0,-4.23633 -2.57519,-6.73242 -6.00293,-6.73242 -3.43652,0 -6.0205,2.49609 -6.0205,6.73242 0,4.21875 2.58398,6.71484 6.0205,6.71484 z m 0,-2.10058 c -2.14453,0 -3.66504,-1.63477 -3.66504,-4.61426 0,-2.99707 1.52051,-4.63184 3.66504,-4.63184 2.12696,0 3.63868,1.62598 3.63868,4.63184 0,2.98828 -1.51172,4.61426 -3.63868,4.61426 z M 374.60059,184 h 8.12988 v -1.97754 h -5.7832 V 170.9043 h -2.34668 z m 17.77539,0.17578 c 3.42773,0 6.00293,-2.4873 6.00293,-6.71484 0,-4.23633 -2.5752,-6.73242 -6.00293,-6.73242 -3.43653,0 -6.02051,2.49609 -6.02051,6.73242 0,4.21875 2.58398,6.71484 6.02051,6.71484 z m 0,-2.10058 c -2.14453,0 -3.66504,-1.63477 -3.66504,-4.61426 0,-2.99707 1.52051,-4.63184 3.66504,-4.63184 2.12695,0 3.63867,1.62598 3.63867,4.63184 0,2.98828 -1.51172,4.61426 -3.63867,4.61426 z m 16.37793,2.10058 c 3.23437,0 5.55468,-2.08301 5.55468,-5.44922 v -1.57324 h -5.2998 v 1.8457 h 3.02344 c -0.044,1.88086 -1.30078,3.07618 -3.26953,3.07618 -2.20606,0 -3.71778,-1.66114 -3.71778,-4.62305 0,-2.9707 1.54688,-4.62305 3.66504,-4.62305 1.59082,0 2.66309,0.86133 3.08496,2.25879 h 2.39942 c -0.4043,-2.57519 -2.62793,-4.35937 -5.51075,-4.35937 -3.42773,0 -5.99414,2.52246 -5.99414,6.74121 0,4.13964 2.45215,6.70605 6.06446,6.70605 z M 422.56543,184 h 2.34668 v -5.07129 l 4.78125,-8.02441 h -2.72461 l -2.29395,4.13086 c -0.34277,0.62402 -0.63281,1.18652 -0.92285,1.93359 -0.29004,-0.72949 -0.58008,-1.29199 -0.94043,-1.93359 l -2.33789,-4.13086 h -2.74218 l 4.83398,8.02441 z m 21.3916,-17.31445 h -2.12695 v 21.5332 h 2.12695 z m 18.60547,17.49023 c 3.09375,0 5.16797,-2.03027 5.52832,-4.53516 h -2.37305 c -0.29882,1.54688 -1.56445,2.43458 -3.1289,2.43458 -2.12696,0 -3.66504,-1.6084 -3.66504,-4.61426 0,-2.97071 1.52929,-4.63184 3.67383,-4.63184 1.56445,0 2.83007,0.8877 3.12011,2.43457 h 2.36426 c -0.41308,-2.86523 -2.64551,-4.53515 -5.51953,-4.53515 -3.41895,0 -5.99414,2.49609 -5.99414,6.73242 0,4.21875 2.54883,6.71484 5.99414,6.71484 z m 15.78906,0 c 3.42774,0 6.00293,-2.4873 6.00293,-6.71484 0,-4.23633 -2.57519,-6.73242 -6.00293,-6.73242 -3.43652,0 -6.02051,2.49609 -6.02051,6.73242 0,4.21875 2.58399,6.71484 6.02051,6.71484 z m 0,-2.10058 c -2.14453,0 -3.66504,-1.63477 -3.66504,-4.61426 0,-2.99707 1.52051,-4.63184 3.66504,-4.63184 2.12696,0 3.63867,1.62598 3.63867,4.63184 0,2.98828 -1.51171,4.61426 -3.63867,4.61426 z M 489.07812,184 h 2.39063 v -6.50391 c 0,-0.72949 -0.0791,-2.10937 -0.16699,-3.72656 0.8789,1.70508 1.37109,2.63672 2.05664,3.73535 L 497.44531,184 h 2.66309 v -13.0957 h -2.38184 v 6.87304 c 0,0.79981 0.0527,2.12696 0.14063,3.39258 -0.57129,-1.30957 -1.14258,-2.30273 -1.6084,-3.0498 l -4.52637,-7.21582 h -2.6543 z m 20.76368,0.20215 c 3.1289,0 4.95703,-1.57324 4.95703,-3.87598 0,-2.28515 -1.90723,-3.2959 -3.84961,-3.76172 l -1.22168,-0.3164 c -1.06348,-0.26368 -2.23242,-0.70313 -2.23242,-1.80176 0,-0.99317 0.89648,-1.72266 2.37304,-1.72266 1.41504,0 2.36426,0.65039 2.47852,1.7666 h 2.27637 c -0.0615,-2.18847 -1.92481,-3.76171 -4.71973,-3.76171 -2.74219,0 -4.78125,1.54687 -4.78125,3.85839 0,1.84571 1.29199,2.95313 3.48047,3.51563 l 1.48535,0.38672 c 1.41504,0.36914 2.36426,0.7998 2.36426,1.81933 0,1.125 -1.08106,1.88965 -2.62793,1.88965 -1.47656,0 -2.64551,-0.66797 -2.75098,-2.04785 h -2.31152 c 0.10547,2.58398 2.03027,4.05176 5.08008,4.05176 z m 14.91894,-0.009 c 3.19043,0 5.3086,-1.93359 5.3086,-4.73731 v -8.55175 h -2.34668 v 8.3584 c 0,1.64355 -1.15137,2.83007 -2.96192,2.83007 -1.81054,0 -2.96191,-1.18652 -2.96191,-2.83007 v -8.3584 h -2.34668 v 8.55175 c 0,2.80372 2.10058,4.73731 5.30859,4.73731 z M 535.19727,184 h 8.12988 v -1.97754 h -5.7832 V 170.9043 h -2.34668 z m 10.41894,-11.11816 h 4.04297 V 184 h 2.34668 v -11.11816 h 4.03418 v -1.97754 h -10.42383 z m 17.31836,-1.97754 h -2.34668 V 184 h 2.34668 z M 568.07129,184 h 2.39062 v -6.50391 c 0,-0.72949 -0.0791,-2.10937 -0.16699,-3.72656 0.87891,1.70508 1.3711,2.63672 2.05664,3.73535 L 576.43848,184 h 2.66308 v -13.0957 h -2.38183 v 6.87304 c 0,0.79981 0.0527,2.12696 0.14062,3.39258 -0.57129,-1.30957 -1.14258,-2.30273 -1.6084,-3.0498 l -4.52636,-7.21582 h -2.6543 z m 21.81836,0.17578 c 3.23437,0 5.55469,-2.08301 5.55469,-5.44922 v -1.57324 h -5.29981 v 1.8457 h 3.02344 c -0.0439,1.88086 -1.30078,3.07618 -3.26953,3.07618 -2.20606,0 -3.71778,-1.66114 -3.71778,-4.62305 0,-2.9707 1.54688,-4.62305 3.66504,-4.62305 1.59082,0 2.66309,0.86133 3.08496,2.25879 h 2.39942 c -0.4043,-2.57519 -2.62793,-4.35937 -5.51074,-4.35937 -3.42774,0 -5.99414,2.52246 -5.99414,6.74121 0,4.13964 2.45214,6.70605 6.06445,6.70605 z"
     id="text8"
     style="font-weight:600;font-size:18px;font-family:Inter;letter-spacing:2.5px;fill:#ffffff"
     aria-label="CREATIVE | TECHNOLOGY | CONSULTING" />
</svg>
